<svg xmlns="http://www.w3.org/2000/svg" viewBox="-10 0 120 120" role="img" aria-labelledby="title" data-optical-profile="display"><title id="title">THOM</title><defs>
    <linearGradient id="thom-metal" x1="0" y1="0" x2="1" y2="1">
      <stop offset="0" stop-color="#765237"/>
      <stop offset=".28" stop-color="#d6b06a"/>
      <stop offset=".49" stop-color="#fff5dc"/>
      <stop offset=".7" stop-color="#f2e5cf"/>
      <stop offset="1" stop-color="#765237"/>
    </linearGradient>
    <linearGradient id="thom-pi-metal" gradientUnits="userSpaceOnUse" x1="0" y1="0" x2="100" y2="120">
      <stop offset="0" stop-color="#50382f"/>
      <stop offset=".28" stop-color="#8a6941"/>
      <stop offset=".49" stop-color="#c9ba9d"/>
      <stop offset=".7" stop-color="#9e9384"/>
      <stop offset="1" stop-color="#50382f"/>
    </linearGradient>
    <linearGradient id="thom-m-highlight" x1="0" y1="0" x2="1" y2="0">
      <stop offset="0" stop-color="#765237"/>
      <stop offset=".08" stop-color="#d6b06a"/>
      <stop offset=".14" stop-color="#fff5dc"/>
      <stop offset=".86" stop-color="#fff5dc"/>
      <stop offset=".92" stop-color="#d6b06a"/>
      <stop offset="1" stop-color="#765237"/>
    </linearGradient>
    <linearGradient id="thom-m-partial" x1="0" y1="0" x2="1" y2="0">
      <stop offset="0" stop-color="#765237"/>
      <stop offset=".14" stop-color="#d6b06a"/>
      <stop offset=".86" stop-color="#d6b06a"/>
      <stop offset="1" stop-color="#765237"/>
    </linearGradient>
    <linearGradient id="thom-h-metal" x1="0" y1="0" x2="1" y2="0">
      <stop offset="0" stop-color="#d1aa6e"/>
      <stop offset=".42" stop-color="#e8cfa6"/>
      <stop offset=".5" stop-color="#f9e8c7"/>
      <stop offset=".58" stop-color="#e8cfa6"/>
      <stop offset="1" stop-color="#d1aa6e"/>
    </linearGradient>
    <filter id="thom-fill-glow" x="-30%" y="-30%" width="160%" height="160%" color-interpolation-filters="sRGB">
      <feGaussianBlur in="SourceGraphic" stdDeviation="1.35" result="blur"/>
      <feColorMatrix in="blur" type="matrix" values="1 0 0 0 .17 0 .72 0 0 .08 0 0 .38 0 .02 0 0 0 .34 0" result="warm"/>
      <feMerge><feMergeNode in="warm"/><feMergeNode in="SourceGraphic"/></feMerge>
    </filter>
    <filter id="thom-pi-glow" x="-24%" y="-24%" width="148%" height="148%" color-interpolation-filters="sRGB">
      <feGaussianBlur in="SourceGraphic" stdDeviation=".9" result="blur"/>
      <feColorMatrix in="blur" type="matrix" values=".72 0 0 0 .12 0 .54 0 0 .06 0 0 .3 0 .02 0 0 0 .22 0" result="warm"/>
      <feMerge><feMergeNode in="warm"/><feMergeNode in="SourceGraphic"/></feMerge>
    </filter>
    <filter id="thom-line-glow" x="-45%" y="-45%" width="190%" height="190%" color-interpolation-filters="sRGB">
      <feGaussianBlur stdDeviation="2.2" result="blur"/>
      <feMerge><feMergeNode in="blur"/><feMergeNode in="SourceGraphic"/></feMerge>
    </filter>
    <filter id="thom-o-glow" x="-35%" y="-35%" width="170%" height="170%" color-interpolation-filters="sRGB">
      <feGaussianBlur stdDeviation="1.2" result="blur"/>
      <feMerge><feMergeNode in="blur"/><feMergeNode in="SourceGraphic"/></feMerge>
    </filter>
  </defs><g transform="translate(0 -0.222) scale(0.86 1.03)"><path d="M2 30.2 C5 21 16 13.415 29 13.415 C48 13.415 71 13.87 91 12.96 C95 12.687 97 10.1 97.5 8.25 L99 8.25 C98.5 13.3 94 18.05 86 18.63 L64.51 18.63 L60.79 18.63 L41.36 18.63 L37.64 18.63 C18 18.63 8 21 3 29.8 Z" fill="url(#thom-pi-metal)" stroke="#ead7b5" stroke-width="0.38" filter="url(#thom-pi-glow)"/><path d="M37.64 18.63 C36.99 27 35.07 42.535 33.37 55.275 C30.57 70.745 24.44 86.22 10.5 101.1864 L20.6 101.1864 C26.8 94.65 30.33 83.03 35.13 66.195 C37.93 50.725 40.28 30 41.36 18.63 Z" fill="url(#thom-pi-metal)" stroke="#ead7b5" stroke-width="0.38" filter="url(#thom-pi-glow)"/><path d="M60.79 18.63 C60.18283713 26.44838958 58.46755266 40.51850456 56.85854676 52.72260962 C41.30673423 138.79746558 86.80571662 83.98950826 86.80571662 83.98950826 C46.75198157 120.82021715 60.45031492 52.68602707 60.45031492 52.68602707 C62.26545535 40.13351436 63.72403346 26.90448112 64.51 18.63 Z" fill="url(#thom-pi-metal)" stroke="#ead7b5" stroke-width="0.38" filter="url(#thom-pi-glow)"/></g></svg>
