<svg xmlns="http://www.w3.org/2000/svg" viewBox="0 0 100 120" role="img" aria-labelledby="title"><title id="title">THOM</title><defs>
    <linearGradient id="thom-metal" x1="0" y1="0" x2="1" y2="1">
      <stop offset="0" stop-color="#765237"/>
      <stop offset=".28" stop-color="#d6b06a"/>
      <stop offset=".49" stop-color="#fff5dc"/>
      <stop offset=".7" stop-color="#f2e5cf"/>
      <stop offset="1" stop-color="#765237"/>
    </linearGradient>
    <linearGradient id="thom-pi-metal" gradientUnits="userSpaceOnUse" x1="0" y1="0" x2="100" y2="120">
      <stop offset="0" stop-color="#50382f"/>
      <stop offset=".28" stop-color="#a67f50"/>
      <stop offset=".49" stop-color="#f1dfbd"/>
      <stop offset=".7" stop-color="#beb19f"/>
      <stop offset="1" stop-color="#50382f"/>
    </linearGradient>
    <linearGradient id="thom-m-highlight" x1="0" y1="0" x2="1" y2="0">
      <stop offset="0" stop-color="#765237"/>
      <stop offset=".08" stop-color="#d6b06a"/>
      <stop offset=".14" stop-color="#fff5dc"/>
      <stop offset=".86" stop-color="#fff5dc"/>
      <stop offset=".92" stop-color="#d6b06a"/>
      <stop offset="1" stop-color="#765237"/>
    </linearGradient>
    <linearGradient id="thom-m-partial" x1="0" y1="0" x2="1" y2="0">
      <stop offset="0" stop-color="#765237"/>
      <stop offset=".14" stop-color="#d6b06a"/>
      <stop offset=".86" stop-color="#d6b06a"/>
      <stop offset="1" stop-color="#765237"/>
    </linearGradient>
    <linearGradient id="thom-h-metal" x1="0" y1="0" x2="1" y2="0">
      <stop offset="0" stop-color="#cdb388"/>
      <stop offset=".42" stop-color="#e3cfad"/>
      <stop offset=".5" stop-color="#efe1c7"/>
      <stop offset=".58" stop-color="#e3cfad"/>
      <stop offset="1" stop-color="#cdb388"/>
    </linearGradient>
    <filter id="thom-fill-glow" x="-30%" y="-30%" width="160%" height="160%" color-interpolation-filters="sRGB">
      <feGaussianBlur in="SourceGraphic" stdDeviation="1.35" result="blur"/>
      <feColorMatrix in="blur" type="matrix" values="1 0 0 0 .17 0 .72 0 0 .08 0 0 .38 0 .02 0 0 0 .34 0" result="warm"/>
      <feMerge><feMergeNode in="warm"/><feMergeNode in="SourceGraphic"/></feMerge>
    </filter>
    <filter id="thom-pi-glow" x="-24%" y="-24%" width="148%" height="148%" color-interpolation-filters="sRGB">
      <feGaussianBlur in="SourceGraphic" stdDeviation=".9" result="blur"/>
      <feColorMatrix in="blur" type="matrix" values=".72 0 0 0 .12 0 .54 0 0 .06 0 0 .3 0 .02 0 0 0 .22 0" result="warm"/>
      <feMerge><feMergeNode in="warm"/><feMergeNode in="SourceGraphic"/></feMerge>
    </filter>
    <filter id="thom-line-glow" x="-45%" y="-45%" width="190%" height="190%" color-interpolation-filters="sRGB">
      <feGaussianBlur stdDeviation="2.2" result="blur"/>
      <feMerge><feMergeNode in="blur"/><feMergeNode in="SourceGraphic"/></feMerge>
    </filter>
    <filter id="thom-o-glow" x="-35%" y="-35%" width="170%" height="170%" color-interpolation-filters="sRGB">
      <feGaussianBlur stdDeviation="1.2" result="blur"/>
      <feMerge><feMergeNode in="blur"/><feMergeNode in="SourceGraphic"/></feMerge>
    </filter>
  </defs><path d="M2 37.075 C5 25.245 16 13.415 29 13.415 C48 13.415 71 13.87 91 12.96 C95 12.687 97 9.775 97.5 7.5 L99 7.5 C98.5 17.055 94 22.515 86 22.97 L67 22.97 C65 32.525 63 45.265 62 58.915 C60.8 75.295 63.3 86.215 71 88.945 C77.5 91.22 84 84.395 88 75.295 L90.5 75.295 C86 92.585 77 101.23 67 99.41 C53.5 97.135 50.5 88.49 51.7 73.475 C53 56.185 56 37.075 58.3 22.97 L45 22.97 C44 34.345 42.3 50.725 39.5 66.195 C36.7 83.03 31.5 93.95 23 98.955 C18.5 101.23 13.5 100.32 10.5 98.955 C21.5 85.305 26.5 70.745 29 55.275 C31 42.535 33 30.705 34 22.97 C18 22.97 8 28.885 3 38.895 Z" fill="url(#thom-pi-metal)" fill-opacity="0.646" stroke="#ead7b5" stroke-width="0.38" filter="url(#thom-pi-glow)"/></svg>
