<svg xmlns="http://www.w3.org/2000/svg" width="1440" height="760" viewBox="0 0 1440 760">
    <rect width="100%" height="100%" fill="#050505"/>
    <text x="96" y="42" fill="#f5eee3" font-family="system-ui, sans-serif" font-size="28" font-weight="700">H temporal balance · material</text>
    <text x="96" y="68" fill="#bcae9a" font-family="ui-monospace, monospace" font-size="16">25 ms cadence · 0–700 ms · target energy 598.681</text>
    <rect x="96" y="93.3636363636364" width="1296" height="22.72727272727272" fill="#6fa879" opacity=".14"/>
    <line x1="96" x2="1392" y1="104.72727272727278" y2="104.72727272727278" stroke="#8fbf96" stroke-dasharray="8 8" opacity=".8"/>
    <path d="M96 332 L142.286 279.333 L188.571 227.662 L234.857 177.535 L281.143 127.861 L327.429 104.69 L373.714 104.69 L420 104.69 L466.286 104.69 L512.571 104.69 L558.857 104.262 L605.143 103.882 L651.429 103.479 L697.714 103.223 L744 103.191 L790.286 103.056 L836.571 103.335 L882.857 102.734 L929.143 103.036 L975.429 103.178 L1021.714 103.719 L1068 103.816 L1114.286 104.287 L1160.571 104.727 L1206.857 104.727 L1253.143 104.727 L1299.429 104.727 L1345.714 104.727 L1392 104.727" fill="none" stroke="#e1bc78" stroke-width="4"/>
    <text x="24" y="100" fill="#d5c7b5" font-family="system-ui, sans-serif" font-size="18" transform="rotate(-90 24 100)">optical energy</text>
    <rect x="96" y="448.8333333333333" width="1296" height="208.33333333333331" fill="#6f8fa8" opacity=".12"/>
    <line x1="96" x2="1392" y1="553" y2="553" stroke="#8cb8d1" stroke-dasharray="8 8" opacity=".8"/>
    <path d="M142.286 556.939 L188.571 556.157 L234.857 555.869 L281.143 555.584 L327.429 555.202 L373.714 555.202 L420 555.202 L466.286 555.202 L512.571 555.202 L558.857 555.487 L605.143 555.29 L651.429 555.297 L697.714 554.856 L744 554.891 L790.286 554.84 L836.571 554.575 L882.857 554.61 L929.143 554.237 L975.429 553.815 L1021.714 553.838 L1068 553.416 L1114.286 552.819 L1160.571 553 L1206.857 553 L1253.143 553 L1299.429 553 L1345.714 553 L1392 553" fill="none" stroke="#8fc7dc" stroke-width="4"/>
    <text x="24" y="490" fill="#d5c7b5" font-family="system-ui, sans-serif" font-size="18" transform="rotate(-90 24 490)">centroid x</text>
    <line x1="303.36" x2="303.36" y1="82" y2="678" stroke="#ffffff" opacity=".18"/><text x="311.36" y="706" fill="#9d9183" font-family="ui-monospace, monospace" font-size="14">φ-in end</text><line x1="536.6400000000001" x2="536.6400000000001" y1="82" y2="678" stroke="#ffffff" opacity=".18"/><text x="544.6400000000001" y="706" fill="#9d9183" font-family="ui-monospace, monospace" font-size="14">crossfade start</text><line x1="1158.72" x2="1158.72" y1="82" y2="678" stroke="#ffffff" opacity=".18"/><text x="1166.72" y="706" fill="#9d9183" font-family="ui-monospace, monospace" font-size="14">settled</text>
    <text x="96" y="732" fill="#9d9183" font-family="ui-monospace, monospace" font-size="14" text-anchor="middle">0 ms</text><text x="281.1428571428571" y="732" fill="#9d9183" font-family="ui-monospace, monospace" font-size="14" text-anchor="middle">100 ms</text><text x="466.2857142857143" y="732" fill="#9d9183" font-family="ui-monospace, monospace" font-size="14" text-anchor="middle">200 ms</text><text x="651.4285714285714" y="732" fill="#9d9183" font-family="ui-monospace, monospace" font-size="14" text-anchor="middle">300 ms</text><text x="836.5714285714286" y="732" fill="#9d9183" font-family="ui-monospace, monospace" font-size="14" text-anchor="middle">400 ms</text><text x="1021.7142857142858" y="732" fill="#9d9183" font-family="ui-monospace, monospace" font-size="14" text-anchor="middle">500 ms</text><text x="1206.857142857143" y="732" fill="#9d9183" font-family="ui-monospace, monospace" font-size="14" text-anchor="middle">600 ms</text><text x="1392" y="732" fill="#9d9183" font-family="ui-monospace, monospace" font-size="14" text-anchor="middle">700 ms</text>
  </svg>
